<?xml version="1.0" encoding="utf-8"?>
<!-- Generator: Adobe Illustrator 27.8.1, SVG Export Plug-In . SVG Version: 6.00 Build 0)  -->
<svg version="1.1" id="Layer_1" xmlns="http://www.w3.org/2000/svg" xmlns:xlink="http://www.w3.org/1999/xlink" x="0px" y="0px"
	 viewBox="0 0 256 256" style="enable-background:new 0 0 256 256;" xml:space="preserve">
<style type="text/css">
	.st0{fill:#FFFFFF;}
	.st1{fill:#333333;}
	.st2{fill:#F99D31;}
</style>
<rect y="0" class="st0" width="256" height="256"/>
<path class="st1" d="M7.3,7.3v7.3h7.3V7.3H7.3z M14.6,7.3v7.3h7.3V7.3C21.9,7.3,14.6,7.3,14.6,7.3z M21.9,7.3v7.3h7.3V7.3H21.9z
	 M29.3,7.3v7.3h7.3V7.3H29.3z M36.6,7.3v7.3h7.3V7.3H36.6z M43.9,7.3v7.3h7.3V7.3H43.9z M51.2,7.3v7.3h7.3V7.3H51.2z M65.8,7.3v7.3
	h7.3V7.3H65.8z M73.1,7.3v7.3h7.3V7.3H73.1z M80.5,7.3v7.3h7.3V7.3H80.5z M117,7.3v7.3h7.3V7.3H117z M131.7,7.3v7.3h7.3V7.3H131.7z
	 M146.3,7.3v7.3h7.3V7.3H146.3z M153.6,7.3v7.3h7.3V7.3H153.6z M160.9,7.3v7.3h7.3V7.3H160.9z M182.9,7.3v7.3h7.3V7.3H182.9z
	 M197.5,7.3v7.3h7.3V7.3H197.5z M204.8,7.3v7.3h7.3V7.3H204.8z M212.1,7.3v7.3h7.3V7.3H212.1z M219.4,7.3v7.3h7.3V7.3H219.4z
	 M226.7,7.3v7.3h7.3V7.3H226.7z M234.1,7.3v7.3h7.3V7.3H234.1z M241.4,7.3v7.3h7.3V7.3H241.4z M7.3,14.6v7.3h7.3v-7.3
	C14.6,14.6,7.3,14.6,7.3,14.6z M51.2,14.6v7.3h7.3v-7.3C58.5,14.6,51.2,14.6,51.2,14.6z M80.5,14.6v7.3h7.3v-7.3
	C87.8,14.6,80.5,14.6,80.5,14.6z M95.1,14.6v7.3h7.3v-7.3C102.4,14.6,95.1,14.6,95.1,14.6z M117,14.6v7.3h7.3v-7.3
	C124.3,14.6,117,14.6,117,14.6z M124.3,14.6v7.3h7.3v-7.3C131.7,14.6,124.3,14.6,124.3,14.6z M131.7,14.6v7.3h7.3v-7.3
	C139,14.6,131.7,14.6,131.7,14.6z M139,14.6v7.3h7.3v-7.3C146.3,14.6,139,14.6,139,14.6z M146.3,14.6v7.3h7.3v-7.3
	C153.6,14.6,146.3,14.6,146.3,14.6z M160.9,14.6v7.3h7.3v-7.3C168.2,14.6,160.9,14.6,160.9,14.6z M175.5,14.6v7.3h7.3v-7.3
	C182.9,14.6,175.5,14.6,175.5,14.6z M197.5,14.6v7.3h7.3v-7.3C204.8,14.6,197.5,14.6,197.5,14.6z M241.4,14.6v7.3h7.3v-7.3
	C248.7,14.6,241.4,14.6,241.4,14.6z M7.3,21.9v7.3h7.3v-7.3H7.3z M21.9,21.9v7.3h7.3v-7.3H21.9z M29.3,21.9v7.3h7.3v-7.3H29.3z
	 M36.6,21.9v7.3h7.3v-7.3H36.6z M51.2,21.9v7.3h7.3v-7.3H51.2z M65.8,21.9v7.3h7.3v-7.3H65.8z M87.8,21.9v7.3h7.3v-7.3H87.8z
	 M102.4,21.9v7.3h7.3v-7.3H102.4z M109.7,21.9v7.3h7.3v-7.3H109.7z M124.3,21.9v7.3h7.3v-7.3C131.7,21.9,124.3,21.9,124.3,21.9z
	 M131.7,21.9v7.3h7.3v-7.3H131.7z M139,21.9v7.3h7.3v-7.3H139z M146.3,21.9v7.3h7.3v-7.3H146.3z M153.6,21.9v7.3h7.3v-7.3H153.6z
	 M160.9,21.9v7.3h7.3v-7.3H160.9z M197.5,21.9v7.3h7.3v-7.3H197.5z M212.1,21.9v7.3h7.3v-7.3H212.1z M219.4,21.9v7.3h7.3v-7.3H219.4
	z M226.7,21.9v7.3h7.3v-7.3H226.7z M241.4,21.9v7.3h7.3v-7.3H241.4z M7.3,29.3v7.3h7.3v-7.3H7.3z M21.9,29.3v7.3h7.3v-7.3H21.9z
	 M29.3,29.3v7.3h7.3v-7.3H29.3z M36.6,29.3v7.3h7.3v-7.3H36.6z M51.2,29.3v7.3h7.3v-7.3H51.2z M65.8,29.3v7.3h7.3v-7.3H65.8z
	 M73.1,29.3v7.3h7.3v-7.3H73.1z M87.8,29.3v7.3h7.3v-7.3H87.8z M102.4,29.3v7.3h7.3v-7.3H102.4z M139,29.3v7.3h7.3v-7.3H139z
	 M153.6,29.3v7.3h7.3v-7.3H153.6z M160.9,29.3v7.3h7.3v-7.3H160.9z M197.5,29.3v7.3h7.3v-7.3H197.5z M212.1,29.3v7.3h7.3v-7.3H212.1
	z M219.4,29.3v7.3h7.3v-7.3H219.4z M226.7,29.3v7.3h7.3v-7.3H226.7z M241.4,29.3v7.3h7.3v-7.3H241.4z M7.3,36.6v7.3h7.3v-7.3H7.3z
	 M21.9,36.6v7.3h7.3v-7.3H21.9z M29.3,36.6v7.3h7.3v-7.3H29.3z M36.6,36.6v7.3h7.3v-7.3H36.6z M51.2,36.6v7.3h7.3v-7.3H51.2z
	 M73.1,36.6v7.3h7.3v-7.3H73.1z M80.5,36.6v7.3h7.3v-7.3H80.5z M102.4,36.6v7.3h7.3v-7.3H102.4z M117,36.6v7.3h7.3v-7.3H117z
	 M131.7,36.6v7.3h7.3v-7.3H131.7z M139,36.6v7.3h7.3v-7.3H139z M160.9,36.6v7.3h7.3v-7.3H160.9z M168.2,36.6v7.3h7.3v-7.3H168.2z
	 M175.5,36.6v7.3h7.3v-7.3H175.5z M182.9,36.6v7.3h7.3v-7.3H182.9z M197.5,36.6v7.3h7.3v-7.3H197.5z M212.1,36.6v7.3h7.3v-7.3H212.1
	z M219.4,36.6v7.3h7.3v-7.3H219.4z M226.7,36.6v7.3h7.3v-7.3H226.7z M241.4,36.6v7.3h7.3v-7.3H241.4z M7.3,43.9v7.3h7.3v-7.3H7.3z
	 M51.2,43.9v7.3h7.3v-7.3H51.2z M65.8,43.9v7.3h7.3v-7.3H65.8z M73.1,43.9v7.3h7.3v-7.3H73.1z M95.1,43.9v7.3h7.3v-7.3H95.1z
	 M102.4,43.9v7.3h7.3v-7.3H102.4z M109.7,43.9v7.3h7.3v-7.3H109.7z M117,43.9v7.3h7.3v-7.3H117z M124.3,43.9v7.3h7.3v-7.3H124.3z
	 M139,43.9v7.3h7.3v-7.3H139z M153.6,43.9v7.3h7.3v-7.3H153.6z M175.5,43.9v7.3h7.3v-7.3H175.5z M197.5,43.9v7.3h7.3v-7.3H197.5z
	 M241.4,43.9v7.3h7.3v-7.3H241.4z M7.3,51.2v7.3h7.3v-7.3H7.3z M14.6,51.2v7.3h7.3v-7.3C21.9,51.2,14.6,51.2,14.6,51.2z M21.9,51.2
	v7.3h7.3v-7.3H21.9z M29.3,51.2v7.3h7.3v-7.3H29.3z M36.6,51.2v7.3h7.3v-7.3H36.6z M43.9,51.2v7.3h7.3v-7.3H43.9z M51.2,51.2v7.3
	h7.3v-7.3H51.2z M65.8,51.2v7.3h7.3v-7.3H65.8z M80.5,51.2v7.3h7.3v-7.3H80.5z M95.1,51.2v7.3h7.3v-7.3H95.1z M109.7,51.2v7.3h7.3
	v-7.3H109.7z M124.3,51.2v7.3h7.3v-7.3C131.7,51.2,124.3,51.2,124.3,51.2z M139,51.2v7.3h7.3v-7.3H139z M153.6,51.2v7.3h7.3v-7.3
	H153.6z M168.2,51.2v7.3h7.3v-7.3H168.2z M182.9,51.2v7.3h7.3v-7.3H182.9z M197.5,51.2v7.3h7.3v-7.3H197.5z M204.8,51.2v7.3h7.3
	v-7.3H204.8z M212.1,51.2v7.3h7.3v-7.3H212.1z M219.4,51.2v7.3h7.3v-7.3H219.4z M226.7,51.2v7.3h7.3v-7.3H226.7z M234.1,51.2v7.3
	h7.3v-7.3H234.1z M241.4,51.2v7.3h7.3v-7.3H241.4z M65.8,58.5v7.3h7.3v-7.3H65.8z M73.1,58.5v7.3h7.3v-7.3H73.1z M80.5,58.5v7.3h7.3
	v-7.3H80.5z M109.7,58.5v7.3h7.3v-7.3H109.7z M117,58.5v7.3h7.3v-7.3H117z M124.3,58.5v7.3h7.3v-7.3
	C131.7,58.5,124.3,58.5,124.3,58.5z M131.7,58.5v7.3h7.3v-7.3H131.7z M146.3,58.5v7.3h7.3v-7.3H146.3z M175.5,58.5v7.3h7.3v-7.3
	H175.5z M182.9,58.5v7.3h7.3v-7.3H182.9z M7.3,65.8v7.3h7.3v-7.3H7.3z M14.6,65.8v7.3h7.3v-7.3C21.9,65.8,14.6,65.8,14.6,65.8z
	 M29.3,65.8v7.3h7.3v-7.3H29.3z M51.2,65.8v7.3h7.3v-7.3H51.2z M58.5,65.8v7.3h7.3v-7.3H58.5z M80.5,65.8v7.3h7.3v-7.3H80.5z
	 M87.8,65.8v7.3h7.3v-7.3H87.8z M95.1,65.8v7.3h7.3v-7.3H95.1z M109.7,65.8v7.3h7.3v-7.3H109.7z M131.7,65.8v7.3h7.3v-7.3H131.7z
	 M139,65.8v7.3h7.3v-7.3H139z M153.6,65.8v7.3h7.3v-7.3H153.6z M160.9,65.8v7.3h7.3v-7.3H160.9z M168.2,65.8v7.3h7.3v-7.3H168.2z
	 M175.5,65.8v7.3h7.3v-7.3H175.5z M182.9,65.8v7.3h7.3v-7.3H182.9z M190.2,65.8v7.3h7.3v-7.3H190.2z M197.5,65.8v7.3h7.3v-7.3H197.5
	z M204.8,65.8v7.3h7.3v-7.3H204.8z M219.4,65.8v7.3h7.3v-7.3H219.4z M226.7,65.8v7.3h7.3v-7.3H226.7z M241.4,65.8v7.3h7.3v-7.3
	H241.4z M7.3,73.1v7.3h7.3v-7.3H7.3z M14.6,73.1v7.3h7.3v-7.3C21.9,73.1,14.6,73.1,14.6,73.1z M21.9,73.1v7.3h7.3v-7.3H21.9z
	 M29.3,73.1v7.3h7.3v-7.3H29.3z M36.6,73.1v7.3h7.3v-7.3H36.6z M43.9,73.1v7.3h7.3v-7.3H43.9z M65.8,73.1v7.3h7.3v-7.3H65.8z
	 M73.1,73.1v7.3h7.3v-7.3H73.1z M109.7,73.1v7.3h7.3v-7.3H109.7z M117,73.1v7.3h7.3v-7.3H117z M131.7,73.1v7.3h7.3v-7.3H131.7z
	 M139,73.1v7.3h7.3v-7.3H139z M146.3,73.1v7.3h7.3v-7.3H146.3z M160.9,73.1v7.3h7.3v-7.3H160.9z M168.2,73.1v7.3h7.3v-7.3H168.2z
	 M190.2,73.1v7.3h7.3v-7.3H190.2z M197.5,73.1v7.3h7.3v-7.3H197.5z M212.1,73.1v7.3h7.3v-7.3H212.1z M219.4,73.1v7.3h7.3v-7.3H219.4
	z M7.3,80.5v7.3h7.3v-7.3H7.3z M29.3,80.5v7.3h7.3v-7.3H29.3z M36.6,80.5v7.3h7.3v-7.3H36.6z M43.9,80.5v7.3h7.3v-7.3H43.9z
	 M51.2,80.5v7.3h7.3v-7.3H51.2z M58.5,80.5v7.3h7.3v-7.3H58.5z M80.5,80.5v7.3h7.3v-7.3H80.5z M87.8,80.5v7.3h7.3v-7.3H87.8z
	 M117,80.5v7.3h7.3v-7.3H117z M124.3,80.5v7.3h7.3v-7.3H124.3z M146.3,80.5v7.3h7.3v-7.3H146.3z M153.6,80.5v7.3h7.3v-7.3H153.6z
	 M168.2,80.5v7.3h7.3v-7.3H168.2z M182.9,80.5v7.3h7.3v-7.3H182.9z M190.2,80.5v7.3h7.3v-7.3H190.2z M204.8,80.5v7.3h7.3v-7.3H204.8
	z M21.9,87.8v7.3h7.3v-7.3H21.9z M87.8,87.8v7.3h7.3v-7.3H87.8z M109.7,87.8v7.3h7.3v-7.3H109.7z M124.3,87.8v7.3h7.3v-7.3H124.3z
	 M131.7,87.8v7.3h7.3v-7.3H131.7z M160.9,87.8v7.3h7.3v-7.3H160.9z M168.2,87.8v7.3h7.3v-7.3H168.2z M175.5,87.8v7.3h7.3v-7.3H175.5
	z M190.2,87.8v7.3h7.3v-7.3H190.2z M212.1,87.8v7.3h7.3v-7.3H212.1z M226.7,87.8v7.3h7.3v-7.3H226.7z M234.1,87.8v7.3h7.3v-7.3
	H234.1z M241.4,87.8v7.3h7.3v-7.3H241.4z M7.3,95.1v7.3h7.3v-7.3H7.3z M29.3,95.1v7.3h7.3v-7.3H29.3z M36.6,95.1v7.3h7.3v-7.3H36.6z
	 M51.2,95.1v7.3h7.3v-7.3H51.2z M73.1,95.1v7.3h7.3v-7.3H73.1z M87.8,95.1v7.3h7.3v-7.3H87.8z M95.1,95.1v7.3h7.3v-7.3H95.1z
	 M146.3,95.1v7.3h7.3v-7.3H146.3z M190.2,95.1v7.3h7.3v-7.3H190.2z M197.5,95.1v7.3h7.3v-7.3H197.5z M204.8,95.1v7.3h7.3v-7.3H204.8
	z M212.1,95.1v7.3h7.3v-7.3H212.1z M234.1,95.1v7.3h7.3v-7.3H234.1z M21.9,102.4v7.3h7.3v-7.3H21.9z M36.6,102.4v7.3h7.3v-7.3H36.6z
	 M43.9,102.4v7.3h7.3v-7.3H43.9z M73.1,102.4v7.3h7.3v-7.3H73.1z M80.5,102.4v7.3h7.3v-7.3H80.5z M102.4,102.4v7.3h7.3v-7.3H102.4z
	 M117,102.4v7.3h7.3v-7.3H117z M124.3,102.4v7.3h7.3v-7.3C131.7,102.4,124.3,102.4,124.3,102.4z M153.6,102.4v7.3h7.3v-7.3H153.6z
	 M168.2,102.4v7.3h7.3v-7.3H168.2z M175.5,102.4v7.3h7.3v-7.3H175.5z M190.2,102.4v7.3h7.3v-7.3H190.2z M197.5,102.4v7.3h7.3v-7.3
	H197.5z M212.1,102.4v7.3h7.3v-7.3H212.1z M219.4,102.4v7.3h7.3v-7.3H219.4z M234.1,102.4v7.3h7.3v-7.3H234.1z M14.6,109.7v7.3h7.3
	v-7.3H14.6z M21.9,109.7v7.3h7.3v-7.3H21.9z M43.9,109.7v7.3h7.3v-7.3H43.9z M51.2,109.7v7.3h7.3v-7.3H51.2z M58.5,109.7v7.3h7.3
	v-7.3H58.5z M65.8,109.7v7.3h7.3v-7.3H65.8z M73.1,109.7v7.3h7.3v-7.3H73.1z M95.1,109.7v7.3h7.3v-7.3H95.1z M102.4,109.7v7.3h7.3
	v-7.3H102.4z M109.7,109.7v7.3h7.3v-7.3H109.7z M117,109.7v7.3h7.3v-7.3H117z M124.3,109.7v7.3h7.3v-7.3H124.3z M139,109.7v7.3h7.3
	v-7.3H139z M146.3,109.7v7.3h7.3v-7.3H146.3z M175.5,109.7v7.3h7.3v-7.3H175.5z M197.5,109.7v7.3h7.3v-7.3H197.5z M212.1,109.7v7.3
	h7.3v-7.3H212.1z M21.9,117v7.3h7.3V117H21.9z M43.9,117v7.3h7.3V117H43.9z M58.5,117v7.3h7.3V117H58.5z M65.8,117v7.3h7.3V117H65.8
	z M87.8,117v7.3h7.3V117H87.8z M95.1,117v7.3h7.3V117H95.1z M117,117v7.3h7.3V117H117z M131.7,117v7.3h7.3V117H131.7z M139,117v7.3
	h7.3V117H139z M146.3,117v7.3h7.3V117H146.3z M153.6,117v7.3h7.3V117H153.6z M160.9,117v7.3h7.3V117H160.9z M168.2,117v7.3h7.3V117
	H168.2z M175.5,117v7.3h7.3V117H175.5z M190.2,117v7.3h7.3V117H190.2z M204.8,117v7.3h7.3V117H204.8z M212.1,117v7.3h7.3V117H212.1z
	 M226.7,117v7.3h7.3V117H226.7z M7.3,124.3v7.3h7.3v-7.3C14.6,124.3,7.3,124.3,7.3,124.3z M14.6,124.3v7.3h7.3v-7.3
	C21.9,124.3,14.6,124.3,14.6,124.3z M36.6,124.3v7.3h7.3v-7.3C43.9,124.3,36.6,124.3,36.6,124.3z M43.9,124.3v7.3h7.3v-7.3
	C51.2,124.3,43.9,124.3,43.9,124.3z M51.2,124.3v7.3h7.3v-7.3C58.5,124.3,51.2,124.3,51.2,124.3z M58.5,124.3v7.3h7.3v-7.3
	C65.8,124.3,58.5,124.3,58.5,124.3z M65.8,124.3v7.3h7.3v-7.3C73.1,124.3,65.8,124.3,65.8,124.3z M73.1,124.3v7.3h7.3v-7.3
	C80.5,124.3,73.1,124.3,73.1,124.3z M80.5,124.3v7.3h7.3v-7.3C87.8,124.3,80.5,124.3,80.5,124.3z M87.8,124.3v7.3h7.3v-7.3
	C95.1,124.3,87.8,124.3,87.8,124.3z M95.1,124.3v7.3h7.3v-7.3C102.4,124.3,95.1,124.3,95.1,124.3z M124.3,124.3v7.3h7.3v-7.3
	C131.7,124.3,124.3,124.3,124.3,124.3z M139,124.3v7.3h7.3v-7.3C146.3,124.3,139,124.3,139,124.3z M146.3,124.3v7.3h7.3v-7.3
	C153.6,124.3,146.3,124.3,146.3,124.3z M153.6,124.3v7.3h7.3v-7.3C160.9,124.3,153.6,124.3,153.6,124.3z M160.9,124.3v7.3h7.3v-7.3
	C168.2,124.3,160.9,124.3,160.9,124.3z M204.8,124.3v7.3h7.3v-7.3C212.1,124.3,204.8,124.3,204.8,124.3z M212.1,124.3v7.3h7.3v-7.3
	C219.4,124.3,212.1,124.3,212.1,124.3z M219.4,124.3v7.3h7.3v-7.3C226.7,124.3,219.4,124.3,219.4,124.3z M226.7,124.3v7.3h7.3v-7.3
	C234.1,124.3,226.7,124.3,226.7,124.3z M241.4,124.3v7.3h7.3v-7.3C248.7,124.3,241.4,124.3,241.4,124.3z M14.6,131.7v7.3h7.3v-7.3
	H14.6z M36.6,131.7v7.3h7.3v-7.3H36.6z M58.5,131.7v7.3h7.3v-7.3H58.5z M65.8,131.7v7.3h7.3v-7.3H65.8z M73.1,131.7v7.3h7.3v-7.3
	H73.1z M87.8,131.7v7.3h7.3v-7.3H87.8z M109.7,131.7v7.3h7.3v-7.3H109.7z M146.3,131.7v7.3h7.3v-7.3H146.3z M182.9,131.7v7.3h7.3
	v-7.3H182.9z M197.5,131.7v7.3h7.3v-7.3H197.5z M204.8,131.7v7.3h7.3v-7.3H204.8z M212.1,131.7v7.3h7.3v-7.3H212.1z M219.4,131.7
	v7.3h7.3v-7.3H219.4z M226.7,131.7v7.3h7.3v-7.3H226.7z M234.1,131.7v7.3h7.3v-7.3H234.1z M241.4,131.7v7.3h7.3v-7.3H241.4z
	 M21.9,139v7.3h7.3V139H21.9z M29.3,139v7.3h7.3V139C36.6,139,29.3,139,29.3,139z M36.6,139v7.3h7.3V139H36.6z M43.9,139v7.3h7.3
	V139H43.9z M51.2,139v7.3h7.3V139H51.2z M73.1,139v7.3h7.3V139H73.1z M80.5,139v7.3h7.3V139H80.5z M109.7,139v7.3h7.3V139H109.7z
	 M117,139v7.3h7.3V139H117z M124.3,139v7.3h7.3V139H124.3z M139,139v7.3h7.3V139H139z M146.3,139v7.3h7.3V139H146.3z M175.5,139v7.3
	h7.3V139H175.5z M197.5,139v7.3h7.3V139H197.5z M204.8,139v7.3h7.3V139H204.8z M212.1,139v7.3h7.3V139H212.1z M234.1,139v7.3h7.3
	V139H234.1z M241.4,139v7.3h7.3V139H241.4z M7.3,146.3v7.3h7.3v-7.3C14.6,146.3,7.3,146.3,7.3,146.3z M58.5,146.3v7.3h7.3v-7.3
	C65.8,146.3,58.5,146.3,58.5,146.3z M73.1,146.3v7.3h7.3v-7.3H73.1z M95.1,146.3v7.3h7.3v-7.3H95.1z M109.7,146.3v7.3h7.3v-7.3
	H109.7z M146.3,146.3v7.3h7.3v-7.3H146.3z M153.6,146.3v7.3h7.3v-7.3H153.6z M168.2,146.3v7.3h7.3v-7.3H168.2z M182.9,146.3v7.3h7.3
	v-7.3H182.9z M190.2,146.3v7.3h7.3v-7.3H190.2z M197.5,146.3v7.3h7.3v-7.3H197.5z M212.1,146.3v7.3h7.3v-7.3H212.1z M219.4,146.3
	v7.3h7.3v-7.3H219.4z M234.1,146.3v7.3h7.3v-7.3H234.1z M7.3,153.6v7.3h7.3v-7.3C14.6,153.6,7.3,153.6,7.3,153.6z M14.6,153.6v7.3
	h7.3v-7.3H14.6z M21.9,153.6v7.3h7.3v-7.3H21.9z M51.2,153.6v7.3h7.3v-7.3H51.2z M73.1,153.6v7.3h7.3v-7.3H73.1z M87.8,153.6v7.3
	h7.3v-7.3H87.8z M95.1,153.6v7.3h7.3v-7.3H95.1z M102.4,153.6v7.3h7.3v-7.3H102.4z M109.7,153.6v7.3h7.3v-7.3H109.7z M124.3,153.6
	v7.3h7.3v-7.3H124.3z M131.7,153.6v7.3h7.3v-7.3H131.7z M139,153.6v7.3h7.3v-7.3H139z M146.3,153.6v7.3h7.3v-7.3H146.3z
	 M160.9,153.6v7.3h7.3v-7.3H160.9z M168.2,153.6v7.3h7.3v-7.3H168.2z M175.5,153.6v7.3h7.3v-7.3H175.5z M182.9,153.6v7.3h7.3v-7.3
	H182.9z M197.5,153.6v7.3h7.3v-7.3H197.5z M204.8,153.6v7.3h7.3v-7.3H204.8z M212.1,153.6v7.3h7.3v-7.3H212.1z M226.7,153.6v7.3h7.3
	v-7.3H226.7z M14.6,160.9v7.3h7.3v-7.3H14.6z M65.8,160.9v7.3h7.3v-7.3H65.8z M80.5,160.9v7.3h7.3v-7.3H80.5z M102.4,160.9v7.3h7.3
	v-7.3H102.4z M117,160.9v7.3h7.3v-7.3H117z M124.3,160.9v7.3h7.3v-7.3C131.7,160.9,124.3,160.9,124.3,160.9z M139,160.9v7.3h7.3
	v-7.3H139z M153.6,160.9v7.3h7.3v-7.3H153.6z M168.2,160.9v7.3h7.3v-7.3H168.2z M197.5,160.9v7.3h7.3v-7.3H197.5z M204.8,160.9v7.3
	h7.3v-7.3H204.8z M212.1,160.9v7.3h7.3v-7.3H212.1z M226.7,160.9v7.3h7.3v-7.3H226.7z M241.4,160.9v7.3h7.3v-7.3H241.4z M14.6,168.2
	v7.3h7.3v-7.3H14.6z M21.9,168.2v7.3h7.3v-7.3H21.9z M29.3,168.2v7.3h7.3v-7.3H29.3z M51.2,168.2v7.3h7.3v-7.3H51.2z M73.1,168.2
	v7.3h7.3v-7.3H73.1z M80.5,168.2v7.3h7.3v-7.3H80.5z M87.8,168.2v7.3h7.3v-7.3H87.8z M95.1,168.2v7.3h7.3v-7.3H95.1z M109.7,168.2
	v7.3h7.3v-7.3H109.7z M117,168.2v7.3h7.3v-7.3H117z M124.3,168.2v7.3h7.3v-7.3H124.3z M131.7,168.2v7.3h7.3v-7.3H131.7z M139,168.2
	v7.3h7.3v-7.3H139z M146.3,168.2v7.3h7.3v-7.3H146.3z M160.9,168.2v7.3h7.3v-7.3H160.9z M168.2,168.2v7.3h7.3v-7.3H168.2z
	 M175.5,168.2v7.3h7.3v-7.3H175.5z M182.9,168.2v7.3h7.3v-7.3H182.9z M197.5,168.2v7.3h7.3v-7.3H197.5z M219.4,168.2v7.3h7.3v-7.3
	H219.4z M234.1,168.2v7.3h7.3v-7.3H234.1z M7.3,175.5v7.3h7.3v-7.3C14.6,175.5,7.3,175.5,7.3,175.5z M14.6,175.5v7.3h7.3v-7.3H14.6z
	 M21.9,175.5v7.3h7.3v-7.3H21.9z M29.3,175.5v7.3h7.3v-7.3H29.3z M58.5,175.5v7.3h7.3v-7.3H58.5z M73.1,175.5v7.3h7.3v-7.3H73.1z
	 M80.5,175.5v7.3h7.3v-7.3H80.5z M87.8,175.5v7.3h7.3v-7.3H87.8z M95.1,175.5v7.3h7.3v-7.3H95.1z M117,175.5v7.3h7.3v-7.3H117z
	 M124.3,175.5v7.3h7.3v-7.3H124.3z M131.7,175.5v7.3h7.3v-7.3H131.7z M146.3,175.5v7.3h7.3v-7.3H146.3z M153.6,175.5v7.3h7.3v-7.3
	H153.6z M160.9,175.5v7.3h7.3v-7.3H160.9z M168.2,175.5v7.3h7.3v-7.3H168.2z M175.5,175.5v7.3h7.3v-7.3H175.5z M190.2,175.5v7.3h7.3
	v-7.3H190.2z M197.5,175.5v7.3h7.3v-7.3H197.5z M204.8,175.5v7.3h7.3v-7.3H204.8z M212.1,175.5v7.3h7.3v-7.3H212.1z M219.4,175.5
	v7.3h7.3v-7.3H219.4z M226.7,175.5v7.3h7.3v-7.3H226.7z M241.4,175.5v7.3h7.3v-7.3H241.4z M21.9,182.9v7.3h7.3v-7.3H21.9z
	 M29.3,182.9v7.3h7.3v-7.3C36.6,182.9,29.3,182.9,29.3,182.9z M36.6,182.9v7.3h7.3v-7.3H36.6z M43.9,182.9v7.3h7.3v-7.3H43.9z
	 M51.2,182.9v7.3h7.3v-7.3H51.2z M73.1,182.9v7.3h7.3v-7.3H73.1z M80.5,182.9v7.3h7.3v-7.3H80.5z M87.8,182.9v7.3h7.3v-7.3H87.8z
	 M95.1,182.9v7.3h7.3v-7.3H95.1z M102.4,182.9v7.3h7.3v-7.3H102.4z M109.7,182.9v7.3h7.3v-7.3H109.7z M117,182.9v7.3h7.3v-7.3H117z
	 M131.7,182.9v7.3h7.3v-7.3H131.7z M146.3,182.9v7.3h7.3v-7.3H146.3z M168.2,182.9v7.3h7.3v-7.3H168.2z M182.9,182.9v7.3h7.3v-7.3
	H182.9z M190.2,182.9v7.3h7.3v-7.3H190.2z M197.5,182.9v7.3h7.3v-7.3H197.5z M204.8,182.9v7.3h7.3v-7.3H204.8z M212.1,182.9v7.3h7.3
	v-7.3H212.1z M226.7,182.9v7.3h7.3v-7.3H226.7z M234.1,182.9v7.3h7.3v-7.3H234.1z M87.8,190.2v7.3h7.3v-7.3H87.8z M95.1,190.2v7.3
	h7.3v-7.3H95.1z M102.4,190.2v7.3h7.3v-7.3H102.4z M117,190.2v7.3h7.3v-7.3H117z M124.3,190.2v7.3h7.3v-7.3
	C131.7,190.2,124.3,190.2,124.3,190.2z M131.7,190.2v7.3h7.3v-7.3H131.7z M153.6,190.2v7.3h7.3v-7.3H153.6z M168.2,190.2v7.3h7.3
	v-7.3H168.2z M175.5,190.2v7.3h7.3v-7.3H175.5z M182.9,190.2v7.3h7.3v-7.3H182.9z M212.1,190.2v7.3h7.3v-7.3H212.1z M234.1,190.2
	v7.3h7.3v-7.3H234.1z M7.3,197.5v7.3h7.3v-7.3C14.6,197.5,7.3,197.5,7.3,197.5z M14.6,197.5v7.3h7.3v-7.3H14.6z M21.9,197.5v7.3h7.3
	v-7.3H21.9z M29.3,197.5v7.3h7.3v-7.3H29.3z M36.6,197.5v7.3h7.3v-7.3H36.6z M43.9,197.5v7.3h7.3v-7.3H43.9z M51.2,197.5v7.3h7.3
	v-7.3H51.2z M65.8,197.5v7.3h7.3v-7.3H65.8z M73.1,197.5v7.3h7.3v-7.3H73.1z M80.5,197.5v7.3h7.3v-7.3H80.5z M87.8,197.5v7.3h7.3
	v-7.3H87.8z M109.7,197.5v7.3h7.3v-7.3H109.7z M117,197.5v7.3h7.3v-7.3H117z M124.3,197.5v7.3h7.3v-7.3H124.3z M131.7,197.5v7.3h7.3
	v-7.3H131.7z M139,197.5v7.3h7.3v-7.3H139z M160.9,197.5v7.3h7.3v-7.3H160.9z M168.2,197.5v7.3h7.3v-7.3H168.2z M182.9,197.5v7.3
	h7.3v-7.3H182.9z M197.5,197.5v7.3h7.3v-7.3H197.5z M212.1,197.5v7.3h7.3v-7.3H212.1z M226.7,197.5v7.3h7.3v-7.3H226.7z M7.3,204.8
	v7.3h7.3v-7.3C14.6,204.8,7.3,204.8,7.3,204.8z M51.2,204.8v7.3h7.3v-7.3H51.2z M73.1,204.8v7.3h7.3v-7.3H73.1z M80.5,204.8v7.3h7.3
	v-7.3H80.5z M87.8,204.8v7.3h7.3v-7.3H87.8z M102.4,204.8v7.3h7.3v-7.3H102.4z M109.7,204.8v7.3h7.3v-7.3H109.7z M139,204.8v7.3h7.3
	v-7.3H139z M168.2,204.8v7.3h7.3v-7.3H168.2z M175.5,204.8v7.3h7.3v-7.3H175.5z M182.9,204.8v7.3h7.3v-7.3H182.9z M212.1,204.8v7.3
	h7.3v-7.3H212.1z M219.4,204.8v7.3h7.3v-7.3H219.4z M226.7,204.8v7.3h7.3v-7.3H226.7z M234.1,204.8v7.3h7.3v-7.3H234.1z M7.3,212.1
	v7.3h7.3v-7.3C14.6,212.1,7.3,212.1,7.3,212.1z M21.9,212.1v7.3h7.3v-7.3H21.9z M29.3,212.1v7.3h7.3v-7.3
	C36.6,212.1,29.3,212.1,29.3,212.1z M36.6,212.1v7.3h7.3v-7.3H36.6z M51.2,212.1v7.3h7.3v-7.3H51.2z M80.5,212.1v7.3h7.3v-7.3H80.5z
	 M95.1,212.1v7.3h7.3v-7.3H95.1z M109.7,212.1v7.3h7.3v-7.3H109.7z M117,212.1v7.3h7.3v-7.3H117z M124.3,212.1v7.3h7.3v-7.3
	C131.7,212.1,124.3,212.1,124.3,212.1z M131.7,212.1v7.3h7.3v-7.3H131.7z M139,212.1v7.3h7.3v-7.3H139z M146.3,212.1v7.3h7.3v-7.3
	H146.3z M168.2,212.1v7.3h7.3v-7.3H168.2z M182.9,212.1v7.3h7.3v-7.3H182.9z M190.2,212.1v7.3h7.3v-7.3H190.2z M197.5,212.1v7.3h7.3
	v-7.3H197.5z M204.8,212.1v7.3h7.3v-7.3H204.8z M212.1,212.1v7.3h7.3v-7.3H212.1z M234.1,212.1v7.3h7.3v-7.3H234.1z M241.4,212.1
	v7.3h7.3v-7.3H241.4z M7.3,219.4v7.3h7.3v-7.3C14.6,219.4,7.3,219.4,7.3,219.4z M21.9,219.4v7.3h7.3v-7.3H21.9z M29.3,219.4v7.3h7.3
	v-7.3C36.6,219.4,29.3,219.4,29.3,219.4z M36.6,219.4v7.3h7.3v-7.3H36.6z M51.2,219.4v7.3h7.3v-7.3H51.2z M65.8,219.4v7.3h7.3v-7.3
	H65.8z M73.1,219.4v7.3h7.3v-7.3H73.1z M80.5,219.4v7.3h7.3v-7.3H80.5z M87.8,219.4v7.3h7.3v-7.3H87.8z M95.1,219.4v7.3h7.3v-7.3
	H95.1z M109.7,219.4v7.3h7.3v-7.3H109.7z M117,219.4v7.3h7.3v-7.3H117z M124.3,219.4v7.3h7.3v-7.3
	C131.7,219.4,124.3,219.4,124.3,219.4z M131.7,219.4v7.3h7.3v-7.3H131.7z M153.6,219.4v7.3h7.3v-7.3H153.6z M160.9,219.4v7.3h7.3
	v-7.3H160.9z M168.2,219.4v7.3h7.3v-7.3H168.2z M175.5,219.4v7.3h7.3v-7.3H175.5z M182.9,219.4v7.3h7.3v-7.3H182.9z M190.2,219.4
	v7.3h7.3v-7.3H190.2z M204.8,219.4v7.3h7.3v-7.3H204.8z M226.7,219.4v7.3h7.3v-7.3H226.7z M234.1,219.4v7.3h7.3v-7.3H234.1z
	 M7.3,226.7v7.3h7.3v-7.3C14.6,226.7,7.3,226.7,7.3,226.7z M21.9,226.7v7.3h7.3v-7.3H21.9z M29.3,226.7v7.3h7.3v-7.3
	C36.6,226.7,29.3,226.7,29.3,226.7z M36.6,226.7v7.3h7.3v-7.3H36.6z M51.2,226.7v7.3h7.3v-7.3H51.2z M73.1,226.7v7.3h7.3v-7.3H73.1z
	 M102.4,226.7v7.3h7.3v-7.3H102.4z M109.7,226.7v7.3h7.3v-7.3H109.7z M117,226.7v7.3h7.3v-7.3H117z M124.3,226.7v7.3h7.3v-7.3
	C131.7,226.7,124.3,226.7,124.3,226.7z M139,226.7v7.3h7.3v-7.3H139z M153.6,226.7v7.3h7.3v-7.3H153.6z M168.2,226.7v7.3h7.3v-7.3
	H168.2z M204.8,226.7v7.3h7.3v-7.3H204.8z M212.1,226.7v7.3h7.3v-7.3H212.1z M241.4,226.7v7.3h7.3v-7.3H241.4z M7.3,234.1v7.3h7.3
	v-7.3C14.6,234.1,7.3,234.1,7.3,234.1z M51.2,234.1v7.3h7.3v-7.3H51.2z M65.8,234.1v7.3h7.3v-7.3H65.8z M80.5,234.1v7.3h7.3v-7.3
	H80.5z M102.4,234.1v7.3h7.3v-7.3H102.4z M131.7,234.1v7.3h7.3v-7.3H131.7z M139,234.1v7.3h7.3v-7.3H139z M168.2,234.1v7.3h7.3v-7.3
	H168.2z M190.2,234.1v7.3h7.3v-7.3H190.2z M204.8,234.1v7.3h7.3v-7.3H204.8z M212.1,234.1v7.3h7.3v-7.3H212.1z M7.3,241.4v7.3h7.3
	v-7.3C14.6,241.4,7.3,241.4,7.3,241.4z M14.6,241.4v7.3h7.3v-7.3H14.6z M21.9,241.4v7.3h7.3v-7.3H21.9z M29.3,241.4v7.3h7.3v-7.3
	H29.3z M36.6,241.4v7.3h7.3v-7.3H36.6z M43.9,241.4v7.3h7.3v-7.3H43.9z M51.2,241.4v7.3h7.3v-7.3H51.2z M65.8,241.4v7.3h7.3v-7.3
	H65.8z M73.1,241.4v7.3h7.3v-7.3H73.1z M80.5,241.4v7.3h7.3v-7.3H80.5z M95.1,241.4v7.3h7.3v-7.3H95.1z M131.7,241.4v7.3h7.3v-7.3
	H131.7z M146.3,241.4v7.3h7.3v-7.3H146.3z M160.9,241.4v7.3h7.3v-7.3H160.9z M168.2,241.4v7.3h7.3v-7.3H168.2z M212.1,241.4v7.3h7.3
	v-7.3H212.1z M219.4,241.4v7.3h7.3v-7.3H219.4z M234.1,241.4v7.3h7.3v-7.3H234.1z"/>
<g>
	<circle class="st0" cx="128" cy="128" r="46.7"/>
	<path class="st2" d="M122.1,105.6V91c-16.2,2.6-28.9,15.5-31.1,31.7h14.4C107.3,114.4,113.8,107.8,122.1,105.6L122.1,105.6z"/>
	<path class="st2" d="M150.7,122.8h14.4c-2.3-16.4-15.1-29.3-31.5-31.8v14.5C142.1,107.6,148.7,114.3,150.7,122.8L150.7,122.8z"/>
	<path class="st2" d="M105.6,134.3H91.1c2.7,15.8,15.2,28.1,31,30.7v-14.5C114.1,148.4,107.8,142.2,105.6,134.3z"/>
	<path class="st2" d="M133.6,150.6V165c16-2.4,28.6-14.8,31.3-30.7h-14.5C148.1,142.3,141.7,148.6,133.6,150.6L133.6,150.6z"/>
</g>
</svg>
