<?xml version="1.0" encoding="UTF-8"?><svg id="Layer_1" xmlns="http://www.w3.org/2000/svg" viewBox="0 0 256 256"><defs><style>.cls-1{fill:#f99d31;}.cls-1,.cls-2,.cls-3{stroke-width:0px;}.cls-2{fill:#333;}.cls-3{fill:#fff;}</style></defs><rect class="cls-3" width="256" height="256"/><path class="cls-2" d="m7.31,7.31v7.32h7.32v-7.32h-7.32Zm7.32,0v7.32h7.31v-7.32h-7.31Zm7.31,0v7.32h7.32v-7.32h-7.32Zm7.32,0v7.32h7.31v-7.32h-7.31Zm7.31,0v7.32h7.32v-7.32h-7.32Zm7.32,0v7.32h7.31v-7.32h-7.31Zm7.31,0v7.32h7.31v-7.32h-7.31Zm14.63,0v7.32h7.31v-7.32h-7.31Zm7.31,0v7.32h7.32v-7.32h-7.32Zm7.32,0v7.32h7.31v-7.32h-7.31Zm36.57,0v7.32h7.31v-7.32h-7.31Zm14.63,0v7.32h7.31v-7.32h-7.31Zm14.63,0v7.32h7.31v-7.32h-7.31Zm7.31,0v7.32h7.31v-7.32h-7.31Zm7.31,0v7.32h7.32v-7.32h-7.32Zm21.95,0v7.32h7.31v-7.32h-7.31Zm14.63,0v7.32h7.31v-7.32h-7.31Zm7.31,0v7.32h7.31v-7.32h-7.31Zm7.31,0v7.32h7.32v-7.32h-7.32Zm7.32,0v7.32h7.31v-7.32h-7.31Zm7.31,0v7.32h7.32v-7.32h-7.32Zm7.32,0v7.32h7.31v-7.32h-7.31Zm7.31,0v7.32h7.32v-7.32h-7.32ZM7.31,14.63v7.31h7.32v-7.31h-7.32Zm43.89,0v7.31h7.31v-7.31h-7.31Zm29.26,0v7.31h7.31v-7.31h-7.31Zm14.63,0v7.31h7.31v-7.31h-7.31Zm21.94,0v7.31h7.31v-7.31h-7.31Zm7.31,0v7.31h7.32v-7.31h-7.32Zm7.32,0v7.31h7.31v-7.31h-7.31Zm7.31,0v7.31h7.32v-7.31h-7.32Zm7.32,0v7.31h7.31v-7.31h-7.31Zm14.62,0v7.31h7.32v-7.31h-7.32Zm14.63,0v7.31h7.32v-7.31h-7.32Zm21.95,0v7.31h7.31v-7.31h-7.31Zm43.88,0v7.31h7.32v-7.31h-7.32ZM7.31,21.94v7.32h7.32v-7.32h-7.32Zm14.63,0v7.32h7.32v-7.32h-7.32Zm7.32,0v7.32h7.31v-7.32h-7.31Zm7.31,0v7.32h7.32v-7.32h-7.32Zm14.63,0v7.32h7.31v-7.32h-7.31Zm14.63,0v7.32h7.31v-7.32h-7.31Zm21.94,0v7.32h7.32v-7.32h-7.32Zm14.63,0v7.32h7.31v-7.32h-7.31Zm7.31,0v7.32h7.32v-7.32h-7.32Zm14.63,0v7.32h7.32v-7.32h-7.32Zm7.32,0v7.32h7.31v-7.32h-7.31Zm7.31,0v7.32h7.32v-7.32h-7.32Zm7.32,0v7.32h7.31v-7.32h-7.31Zm7.31,0v7.32h7.31v-7.32h-7.31Zm7.31,0v7.32h7.32v-7.32h-7.32Zm36.58,0v7.32h7.31v-7.32h-7.31Zm14.62,0v7.32h7.32v-7.32h-7.32Zm7.32,0v7.32h7.31v-7.32h-7.31Zm7.31,0v7.32h7.32v-7.32h-7.32Zm14.63,0v7.32h7.32v-7.32h-7.32ZM7.31,29.26v7.31h7.32v-7.31h-7.32Zm14.63,0v7.31h7.32v-7.31h-7.32Zm7.32,0v7.31h7.31v-7.31h-7.31Zm7.31,0v7.31h7.32v-7.31h-7.32Zm14.63,0v7.31h7.31v-7.31h-7.31Zm14.63,0v7.31h7.31v-7.31h-7.31Zm7.31,0v7.31h7.32v-7.31h-7.32Zm14.63,0v7.31h7.32v-7.31h-7.32Zm14.63,0v7.31h7.31v-7.31h-7.31Zm36.57,0v7.31h7.32v-7.31h-7.32Zm14.63,0v7.31h7.31v-7.31h-7.31Zm7.31,0v7.31h7.32v-7.31h-7.32Zm36.58,0v7.31h7.31v-7.31h-7.31Zm14.62,0v7.31h7.32v-7.31h-7.32Zm7.32,0v7.31h7.31v-7.31h-7.31Zm7.31,0v7.31h7.32v-7.31h-7.32Zm14.63,0v7.31h7.32v-7.31h-7.32ZM7.31,36.57v7.32h7.32v-7.32h-7.32Zm14.63,0v7.32h7.32v-7.32h-7.32Zm7.32,0v7.32h7.31v-7.32h-7.31Zm7.31,0v7.32h7.32v-7.32h-7.32Zm14.63,0v7.32h7.31v-7.32h-7.31Zm21.94,0v7.32h7.32v-7.32h-7.32Zm7.32,0v7.32h7.31v-7.32h-7.31Zm21.94,0v7.32h7.31v-7.32h-7.31Zm14.63,0v7.32h7.31v-7.32h-7.31Zm14.63,0v7.32h7.31v-7.32h-7.31Zm7.31,0v7.32h7.32v-7.32h-7.32Zm21.94,0v7.32h7.32v-7.32h-7.32Zm7.32,0v7.32h7.31v-7.32h-7.31Zm7.31,0v7.32h7.32v-7.32h-7.32Zm7.32,0v7.32h7.31v-7.32h-7.31Zm14.63,0v7.32h7.31v-7.32h-7.31Zm14.62,0v7.32h7.32v-7.32h-7.32Zm7.32,0v7.32h7.31v-7.32h-7.31Zm7.31,0v7.32h7.32v-7.32h-7.32Zm14.63,0v7.32h7.32v-7.32h-7.32ZM7.31,43.89v7.31h7.32v-7.31h-7.32Zm43.89,0v7.31h7.31v-7.31h-7.31Zm14.63,0v7.31h7.31v-7.31h-7.31Zm7.31,0v7.31h7.32v-7.31h-7.32Zm21.95,0v7.31h7.31v-7.31h-7.31Zm7.31,0v7.31h7.31v-7.31h-7.31Zm7.31,0v7.31h7.32v-7.31h-7.32Zm7.32,0v7.31h7.31v-7.31h-7.31Zm7.31,0v7.31h7.32v-7.31h-7.32Zm14.63,0v7.31h7.32v-7.31h-7.32Zm14.63,0v7.31h7.31v-7.31h-7.31Zm21.94,0v7.31h7.32v-7.31h-7.32Zm21.95,0v7.31h7.31v-7.31h-7.31Zm43.88,0v7.31h7.32v-7.31h-7.32ZM7.31,51.2v7.31h7.32v-7.31h-7.32Zm7.32,0v7.31h7.31v-7.31h-7.31Zm7.31,0v7.31h7.32v-7.31h-7.32Zm7.32,0v7.31h7.31v-7.31h-7.31Zm7.31,0v7.31h7.32v-7.31h-7.32Zm7.32,0v7.31h7.31v-7.31h-7.31Zm7.31,0v7.31h7.31v-7.31h-7.31Zm14.63,0v7.31h7.31v-7.31h-7.31Zm14.63,0v7.31h7.31v-7.31h-7.31Zm14.63,0v7.31h7.31v-7.31h-7.31Zm14.62,0v7.31h7.32v-7.31h-7.32Zm14.63,0v7.31h7.32v-7.31h-7.32Zm14.63,0v7.31h7.32v-7.31h-7.32Zm14.63,0v7.31h7.31v-7.31h-7.31Zm14.63,0v7.31h7.31v-7.31h-7.31Zm14.63,0v7.31h7.31v-7.31h-7.31Zm14.63,0v7.31h7.31v-7.31h-7.31Zm7.31,0v7.31h7.31v-7.31h-7.31Zm7.31,0v7.31h7.32v-7.31h-7.32Zm7.32,0v7.31h7.31v-7.31h-7.31Zm7.31,0v7.31h7.32v-7.31h-7.32Zm7.32,0v7.31h7.31v-7.31h-7.31Zm7.31,0v7.31h7.32v-7.31h-7.32Zm-175.54,7.31v7.32h7.31v-7.32h-7.31Zm7.31,0v7.32h7.32v-7.32h-7.32Zm7.32,0v7.32h7.31v-7.32h-7.31Zm29.25,0v7.32h7.32v-7.32h-7.32Zm7.32,0v7.32h7.31v-7.32h-7.31Zm7.31,0v7.32h7.32v-7.32h-7.32Zm7.32,0v7.32h7.31v-7.32h-7.31Zm14.63,0v7.32h7.31v-7.32h-7.31Zm29.25,0v7.32h7.32v-7.32h-7.32Zm7.32,0v7.32h7.31v-7.32h-7.31ZM7.31,65.83v7.31h7.32v-7.31h-7.32Zm7.32,0v7.31h7.31v-7.31h-7.31Zm14.63,0v7.31h7.31v-7.31h-7.31Zm21.94,0v7.31h7.31v-7.31h-7.31Zm7.31,0v7.31h7.32v-7.31h-7.32Zm21.95,0v7.31h7.31v-7.31h-7.31Zm7.31,0v7.31h7.32v-7.31h-7.32Zm7.32,0v7.31h7.31v-7.31h-7.31Zm14.62,0v7.31h7.32v-7.31h-7.32Zm21.95,0v7.31h7.31v-7.31h-7.31Zm7.31,0v7.31h7.32v-7.31h-7.32Zm14.63,0v7.31h7.31v-7.31h-7.31Zm7.31,0v7.31h7.32v-7.31h-7.32Zm7.32,0v7.31h7.31v-7.31h-7.31Zm7.31,0v7.31h7.32v-7.31h-7.32Zm7.32,0v7.31h7.31v-7.31h-7.31Zm7.31,0v7.31h7.32v-7.31h-7.32Zm7.32,0v7.31h7.31v-7.31h-7.31Zm7.31,0v7.31h7.31v-7.31h-7.31Zm14.63,0v7.31h7.31v-7.31h-7.31Zm7.31,0v7.31h7.32v-7.31h-7.32Zm14.63,0v7.31h7.32v-7.31h-7.32ZM7.31,73.14v7.32h7.32v-7.32h-7.32Zm7.32,0v7.32h7.31v-7.32h-7.31Zm7.31,0v7.32h7.32v-7.32h-7.32Zm7.32,0v7.32h7.31v-7.32h-7.31Zm7.31,0v7.32h7.32v-7.32h-7.32Zm7.32,0v7.32h7.31v-7.32h-7.31Zm21.94,0v7.32h7.31v-7.32h-7.31Zm7.31,0v7.32h7.32v-7.32h-7.32Zm36.57,0v7.32h7.32v-7.32h-7.32Zm7.32,0v7.32h7.31v-7.32h-7.31Zm14.63,0v7.32h7.31v-7.32h-7.31Zm7.31,0v7.32h7.32v-7.32h-7.32Zm7.32,0v7.32h7.31v-7.32h-7.31Zm14.62,0v7.32h7.32v-7.32h-7.32Zm7.32,0v7.32h7.31v-7.32h-7.31Zm21.94,0v7.32h7.32v-7.32h-7.32Zm7.32,0v7.32h7.31v-7.32h-7.31Zm14.62,0v7.32h7.32v-7.32h-7.32Zm7.32,0v7.32h7.31v-7.32h-7.31ZM7.31,80.46v7.31h7.32v-7.31h-7.32Zm21.95,0v7.31h7.31v-7.31h-7.31Zm7.31,0v7.31h7.32v-7.31h-7.32Zm7.32,0v7.31h7.31v-7.31h-7.31Zm7.31,0v7.31h7.31v-7.31h-7.31Zm7.31,0v7.31h7.32v-7.31h-7.32Zm21.95,0v7.31h7.31v-7.31h-7.31Zm7.31,0v7.31h7.32v-7.31h-7.32Zm29.26,0v7.31h7.31v-7.31h-7.31Zm7.31,0v7.31h7.32v-7.31h-7.32Zm21.95,0v7.31h7.31v-7.31h-7.31Zm7.31,0v7.31h7.31v-7.31h-7.31Zm14.63,0v7.31h7.31v-7.31h-7.31Zm14.63,0v7.31h7.31v-7.31h-7.31Zm7.31,0v7.31h7.32v-7.31h-7.32Zm14.63,0v7.31h7.31v-7.31h-7.31Zm-182.86,7.31v7.32h7.32v-7.32h-7.32Zm65.83,0v7.32h7.32v-7.32h-7.32Zm21.94,0v7.32h7.32v-7.32h-7.32Zm14.63,0v7.32h7.32v-7.32h-7.32Zm7.32,0v7.32h7.31v-7.32h-7.31Zm29.25,0v7.32h7.32v-7.32h-7.32Zm7.32,0v7.32h7.31v-7.32h-7.31Zm7.31,0v7.32h7.32v-7.32h-7.32Zm14.63,0v7.32h7.32v-7.32h-7.32Zm21.94,0v7.32h7.32v-7.32h-7.32Zm14.63,0v7.32h7.32v-7.32h-7.32Zm7.32,0v7.32h7.31v-7.32h-7.31Zm7.31,0v7.32h7.32v-7.32h-7.32ZM7.31,95.09v7.31h7.32v-7.31h-7.32Zm21.95,0v7.31h7.31v-7.31h-7.31Zm7.31,0v7.31h7.32v-7.31h-7.32Zm14.63,0v7.31h7.31v-7.31h-7.31Zm21.94,0v7.31h7.32v-7.31h-7.32Zm14.63,0v7.31h7.32v-7.31h-7.32Zm7.32,0v7.31h7.31v-7.31h-7.31Zm51.2,0v7.31h7.31v-7.31h-7.31Zm43.88,0v7.31h7.32v-7.31h-7.32Zm7.32,0v7.31h7.31v-7.31h-7.31Zm7.31,0v7.31h7.31v-7.31h-7.31Zm7.31,0v7.31h7.32v-7.31h-7.32Zm21.95,0v7.31h7.31v-7.31h-7.31Zm-212.12,7.31v7.31h7.32v-7.31h-7.32Zm14.63,0v7.31h7.32v-7.31h-7.32Zm7.32,0v7.31h7.31v-7.31h-7.31Zm29.25,0v7.31h7.32v-7.31h-7.32Zm7.32,0v7.31h7.31v-7.31h-7.31Zm21.94,0v7.31h7.31v-7.31h-7.31Zm14.63,0v7.31h7.31v-7.31h-7.31Zm7.31,0v7.31h7.32v-7.31h-7.32Zm29.26,0v7.31h7.31v-7.31h-7.31Zm14.63,0v7.31h7.31v-7.31h-7.31Zm7.31,0v7.31h7.32v-7.31h-7.32Zm14.63,0v7.31h7.32v-7.31h-7.32Zm7.32,0v7.31h7.31v-7.31h-7.31Zm14.62,0v7.31h7.32v-7.31h-7.32Zm7.32,0v7.31h7.31v-7.31h-7.31Zm14.63,0v7.31h7.31v-7.31h-7.31Zm-219.43,7.31v7.32h7.31v-7.32h-7.31Zm7.31,0v7.32h7.32v-7.32h-7.32Zm21.95,0v7.32h7.31v-7.32h-7.31Zm7.31,0v7.32h7.31v-7.32h-7.31Zm7.31,0v7.32h7.32v-7.32h-7.32Zm7.32,0v7.32h7.31v-7.32h-7.31Zm7.31,0v7.32h7.32v-7.32h-7.32Zm21.95,0v7.32h7.31v-7.32h-7.31Zm7.31,0v7.32h7.31v-7.32h-7.31Zm7.31,0v7.32h7.32v-7.32h-7.32Zm7.32,0v7.32h7.31v-7.32h-7.31Zm7.31,0v7.32h7.32v-7.32h-7.32Zm14.63,0v7.32h7.32v-7.32h-7.32Zm7.32,0v7.32h7.31v-7.32h-7.31Zm29.25,0v7.32h7.32v-7.32h-7.32Zm21.95,0v7.32h7.31v-7.32h-7.31Zm14.62,0v7.32h7.32v-7.32h-7.32Zm-190.17,7.32v7.31h7.32v-7.31h-7.32Zm21.95,0v7.31h7.31v-7.31h-7.31Zm14.62,0v7.31h7.32v-7.31h-7.32Zm7.32,0v7.31h7.31v-7.31h-7.31Zm21.94,0v7.31h7.32v-7.31h-7.32Zm7.32,0v7.31h7.31v-7.31h-7.31Zm21.94,0v7.31h7.31v-7.31h-7.31Zm14.63,0v7.31h7.31v-7.31h-7.31Zm7.31,0v7.31h7.32v-7.31h-7.32Zm7.32,0v7.31h7.31v-7.31h-7.31Zm7.31,0v7.31h7.31v-7.31h-7.31Zm7.31,0v7.31h7.32v-7.31h-7.32Zm7.32,0v7.31h7.31v-7.31h-7.31Zm7.31,0v7.31h7.32v-7.31h-7.32Zm14.63,0v7.31h7.32v-7.31h-7.32Zm14.63,0v7.31h7.31v-7.31h-7.31Zm7.31,0v7.31h7.32v-7.31h-7.32Zm14.63,0v7.31h7.32v-7.31h-7.32ZM7.31,124.34v7.32h7.32v-7.32h-7.32Zm7.32,0v7.32h7.31v-7.32h-7.31Zm21.94,0v7.32h7.32v-7.32h-7.32Zm7.32,0v7.32h7.31v-7.32h-7.31Zm7.31,0v7.32h7.31v-7.32h-7.31Zm7.31,0v7.32h7.32v-7.32h-7.32Zm7.32,0v7.32h7.31v-7.32h-7.31Zm7.31,0v7.32h7.32v-7.32h-7.32Zm7.32,0v7.32h7.31v-7.32h-7.31Zm7.31,0v7.32h7.32v-7.32h-7.32Zm7.32,0v7.32h7.31v-7.32h-7.31Zm29.25,0v7.32h7.32v-7.32h-7.32Zm14.63,0v7.32h7.32v-7.32h-7.32Zm7.32,0v7.32h7.31v-7.32h-7.31Zm7.31,0v7.32h7.31v-7.32h-7.31Zm7.31,0v7.32h7.32v-7.32h-7.32Zm43.89,0v7.32h7.31v-7.32h-7.31Zm7.31,0v7.32h7.32v-7.32h-7.32Zm7.32,0v7.32h7.31v-7.32h-7.31Zm7.31,0v7.32h7.32v-7.32h-7.32Zm14.63,0v7.32h7.32v-7.32h-7.32Zm-226.74,7.32v7.31h7.31v-7.31h-7.31Zm21.94,0v7.31h7.32v-7.31h-7.32Zm21.94,0v7.31h7.32v-7.31h-7.32Zm7.32,0v7.31h7.31v-7.31h-7.31Zm7.31,0v7.31h7.32v-7.31h-7.32Zm14.63,0v7.31h7.32v-7.31h-7.32Zm21.94,0v7.31h7.32v-7.31h-7.32Zm36.58,0v7.31h7.31v-7.31h-7.31Zm36.57,0v7.31h7.31v-7.31h-7.31Zm14.63,0v7.31h7.31v-7.31h-7.31Zm7.31,0v7.31h7.31v-7.31h-7.31Zm7.31,0v7.31h7.32v-7.31h-7.32Zm7.32,0v7.31h7.31v-7.31h-7.31Zm7.31,0v7.31h7.32v-7.31h-7.32Zm7.32,0v7.31h7.31v-7.31h-7.31Zm7.31,0v7.31h7.32v-7.31h-7.32Zm-219.43,7.31v7.32h7.32v-7.32h-7.32Zm7.32,0v7.32h7.31v-7.32h-7.31Zm7.31,0v7.32h7.32v-7.32h-7.32Zm7.32,0v7.32h7.31v-7.32h-7.31Zm7.31,0v7.32h7.31v-7.32h-7.31Zm21.94,0v7.32h7.32v-7.32h-7.32Zm7.32,0v7.32h7.31v-7.32h-7.31Zm29.25,0v7.32h7.32v-7.32h-7.32Zm7.32,0v7.32h7.31v-7.32h-7.31Zm7.31,0v7.32h7.32v-7.32h-7.32Zm14.63,0v7.32h7.32v-7.32h-7.32Zm7.32,0v7.32h7.31v-7.32h-7.31Zm29.25,0v7.32h7.32v-7.32h-7.32Zm21.95,0v7.32h7.31v-7.32h-7.31Zm7.31,0v7.32h7.31v-7.32h-7.31Zm7.31,0v7.32h7.32v-7.32h-7.32Zm21.95,0v7.32h7.31v-7.32h-7.31Zm7.31,0v7.32h7.32v-7.32h-7.32Zm-234.06,7.32v7.31h7.32v-7.31h-7.32Zm51.2,0v7.31h7.32v-7.31h-7.32Zm14.63,0v7.31h7.32v-7.31h-7.32Zm21.95,0v7.31h7.31v-7.31h-7.31Zm14.62,0v7.31h7.32v-7.31h-7.32Zm36.58,0v7.31h7.31v-7.31h-7.31Zm7.31,0v7.31h7.31v-7.31h-7.31Zm14.63,0v7.31h7.31v-7.31h-7.31Zm14.63,0v7.31h7.31v-7.31h-7.31Zm7.31,0v7.31h7.32v-7.31h-7.32Zm7.32,0v7.31h7.31v-7.31h-7.31Zm14.62,0v7.31h7.32v-7.31h-7.32Zm7.32,0v7.31h7.31v-7.31h-7.31Zm14.63,0v7.31h7.31v-7.31h-7.31Zm-226.75,7.31v7.31h7.32v-7.31h-7.32Zm7.32,0v7.31h7.31v-7.31h-7.31Zm7.31,0v7.31h7.32v-7.31h-7.32Zm29.26,0v7.31h7.31v-7.31h-7.31Zm21.94,0v7.31h7.32v-7.31h-7.32Zm14.63,0v7.31h7.32v-7.31h-7.32Zm7.32,0v7.31h7.31v-7.31h-7.31Zm7.31,0v7.31h7.31v-7.31h-7.31Zm7.31,0v7.31h7.32v-7.31h-7.32Zm14.63,0v7.31h7.32v-7.31h-7.32Zm7.32,0v7.31h7.31v-7.31h-7.31Zm7.31,0v7.31h7.32v-7.31h-7.32Zm7.32,0v7.31h7.31v-7.31h-7.31Zm14.62,0v7.31h7.32v-7.31h-7.32Zm7.32,0v7.31h7.31v-7.31h-7.31Zm7.31,0v7.31h7.32v-7.31h-7.32Zm7.32,0v7.31h7.31v-7.31h-7.31Zm14.63,0v7.31h7.31v-7.31h-7.31Zm7.31,0v7.31h7.31v-7.31h-7.31Zm7.31,0v7.31h7.32v-7.31h-7.32Zm14.63,0v7.31h7.32v-7.31h-7.32Zm-212.11,7.31v7.32h7.31v-7.32h-7.31Zm51.2,0v7.32h7.31v-7.32h-7.31Zm14.63,0v7.32h7.31v-7.32h-7.31Zm21.94,0v7.32h7.31v-7.32h-7.31Zm14.63,0v7.32h7.31v-7.32h-7.31Zm7.31,0v7.32h7.32v-7.32h-7.32Zm14.63,0v7.32h7.32v-7.32h-7.32Zm14.63,0v7.32h7.31v-7.32h-7.31Zm14.63,0v7.32h7.31v-7.32h-7.31Zm29.26,0v7.32h7.31v-7.32h-7.31Zm7.31,0v7.32h7.31v-7.32h-7.31Zm7.31,0v7.32h7.32v-7.32h-7.32Zm14.63,0v7.32h7.32v-7.32h-7.32Zm14.63,0v7.32h7.32v-7.32h-7.32Zm-226.74,7.32v7.31h7.31v-7.31h-7.31Zm7.31,0v7.31h7.32v-7.31h-7.32Zm7.32,0v7.31h7.31v-7.31h-7.31Zm21.94,0v7.31h7.31v-7.31h-7.31Zm21.94,0v7.31h7.32v-7.31h-7.32Zm7.32,0v7.31h7.31v-7.31h-7.31Zm7.31,0v7.31h7.32v-7.31h-7.32Zm7.32,0v7.31h7.31v-7.31h-7.31Zm14.62,0v7.31h7.32v-7.31h-7.32Zm7.32,0v7.31h7.31v-7.31h-7.31Zm7.31,0v7.31h7.32v-7.31h-7.32Zm7.32,0v7.31h7.31v-7.31h-7.31Zm7.31,0v7.31h7.32v-7.31h-7.32Zm7.32,0v7.31h7.31v-7.31h-7.31Zm14.62,0v7.31h7.32v-7.31h-7.32Zm7.32,0v7.31h7.31v-7.31h-7.31Zm7.31,0v7.31h7.32v-7.31h-7.32Zm7.32,0v7.31h7.31v-7.31h-7.31Zm14.63,0v7.31h7.31v-7.31h-7.31Zm21.94,0v7.31h7.31v-7.31h-7.31Zm14.63,0v7.31h7.31v-7.31h-7.31Zm-226.75,7.31v7.32h7.32v-7.32h-7.32Zm7.32,0v7.32h7.31v-7.32h-7.31Zm7.31,0v7.32h7.32v-7.32h-7.32Zm7.32,0v7.32h7.31v-7.32h-7.31Zm29.25,0v7.32h7.32v-7.32h-7.32Zm14.63,0v7.32h7.32v-7.32h-7.32Zm7.32,0v7.32h7.31v-7.32h-7.31Zm7.31,0v7.32h7.32v-7.32h-7.32Zm7.32,0v7.32h7.31v-7.32h-7.31Zm21.94,0v7.32h7.31v-7.32h-7.31Zm7.31,0v7.32h7.32v-7.32h-7.32Zm7.32,0v7.32h7.31v-7.32h-7.31Zm14.63,0v7.32h7.31v-7.32h-7.31Zm7.31,0v7.32h7.31v-7.32h-7.31Zm7.31,0v7.32h7.32v-7.32h-7.32Zm7.32,0v7.32h7.31v-7.32h-7.31Zm7.31,0v7.32h7.32v-7.32h-7.32Zm14.63,0v7.32h7.32v-7.32h-7.32Zm7.32,0v7.32h7.31v-7.32h-7.31Zm7.31,0v7.32h7.31v-7.32h-7.31Zm7.31,0v7.32h7.32v-7.32h-7.32Zm7.32,0v7.32h7.31v-7.32h-7.31Zm7.31,0v7.32h7.32v-7.32h-7.32Zm14.63,0v7.32h7.32v-7.32h-7.32Zm-219.43,7.32v7.31h7.32v-7.31h-7.32Zm7.32,0v7.31h7.31v-7.31h-7.31Zm7.31,0v7.31h7.32v-7.31h-7.32Zm7.32,0v7.31h7.31v-7.31h-7.31Zm7.31,0v7.31h7.31v-7.31h-7.31Zm21.94,0v7.31h7.32v-7.31h-7.32Zm7.32,0v7.31h7.31v-7.31h-7.31Zm7.31,0v7.31h7.32v-7.31h-7.32Zm7.32,0v7.31h7.31v-7.31h-7.31Zm7.31,0v7.31h7.31v-7.31h-7.31Zm7.31,0v7.31h7.32v-7.31h-7.32Zm7.32,0v7.31h7.31v-7.31h-7.31Zm14.63,0v7.31h7.31v-7.31h-7.31Zm14.63,0v7.31h7.31v-7.31h-7.31Zm21.94,0v7.31h7.31v-7.31h-7.31Zm14.63,0v7.31h7.31v-7.31h-7.31Zm7.31,0v7.31h7.32v-7.31h-7.32Zm7.32,0v7.31h7.31v-7.31h-7.31Zm7.31,0v7.31h7.31v-7.31h-7.31Zm7.31,0v7.31h7.32v-7.31h-7.32Zm14.63,0v7.31h7.32v-7.31h-7.32Zm7.32,0v7.31h7.31v-7.31h-7.31Zm-146.29,7.31v7.32h7.32v-7.32h-7.32Zm7.32,0v7.32h7.31v-7.32h-7.31Zm7.31,0v7.32h7.31v-7.32h-7.31Zm14.63,0v7.32h7.31v-7.32h-7.31Zm7.31,0v7.32h7.32v-7.32h-7.32Zm7.32,0v7.32h7.31v-7.32h-7.31Zm21.94,0v7.32h7.31v-7.32h-7.31Zm14.63,0v7.32h7.31v-7.32h-7.31Zm7.31,0v7.32h7.32v-7.32h-7.32Zm7.32,0v7.32h7.31v-7.32h-7.31Zm29.25,0v7.32h7.32v-7.32h-7.32Zm21.95,0v7.32h7.31v-7.32h-7.31Zm-226.75,7.32v7.31h7.32v-7.31h-7.32Zm7.32,0v7.31h7.31v-7.31h-7.31Zm7.31,0v7.31h7.32v-7.31h-7.32Zm7.32,0v7.31h7.31v-7.31h-7.31Zm7.31,0v7.31h7.32v-7.31h-7.32Zm7.32,0v7.31h7.31v-7.31h-7.31Zm7.31,0v7.31h7.31v-7.31h-7.31Zm14.63,0v7.31h7.31v-7.31h-7.31Zm7.31,0v7.31h7.32v-7.31h-7.32Zm7.32,0v7.31h7.31v-7.31h-7.31Zm7.31,0v7.31h7.32v-7.31h-7.32Zm21.94,0v7.31h7.32v-7.31h-7.32Zm7.32,0v7.31h7.31v-7.31h-7.31Zm7.31,0v7.31h7.32v-7.31h-7.32Zm7.32,0v7.31h7.31v-7.31h-7.31Zm7.31,0v7.31h7.32v-7.31h-7.32Zm21.94,0v7.31h7.32v-7.31h-7.32Zm7.32,0v7.31h7.31v-7.31h-7.31Zm14.63,0v7.31h7.31v-7.31h-7.31Zm14.63,0v7.31h7.31v-7.31h-7.31Zm14.62,0v7.31h7.32v-7.31h-7.32Zm14.63,0v7.31h7.32v-7.31h-7.32Zm-219.43,7.31v7.31h7.32v-7.31h-7.32Zm43.89,0v7.31h7.31v-7.31h-7.31Zm21.94,0v7.31h7.32v-7.31h-7.32Zm7.32,0v7.31h7.31v-7.31h-7.31Zm7.31,0v7.31h7.32v-7.31h-7.32Zm14.63,0v7.31h7.31v-7.31h-7.31Zm7.31,0v7.31h7.32v-7.31h-7.32Zm29.26,0v7.31h7.32v-7.31h-7.32Zm29.26,0v7.31h7.31v-7.31h-7.31Zm7.31,0v7.31h7.32v-7.31h-7.32Zm7.32,0v7.31h7.31v-7.31h-7.31Zm29.25,0v7.31h7.32v-7.31h-7.32Zm7.32,0v7.31h7.31v-7.31h-7.31Zm7.31,0v7.31h7.32v-7.31h-7.32Zm7.32,0v7.31h7.31v-7.31h-7.31Zm-226.75,7.31v7.32h7.32v-7.32h-7.32Zm14.63,0v7.32h7.32v-7.32h-7.32Zm7.32,0v7.32h7.31v-7.32h-7.31Zm7.31,0v7.32h7.32v-7.32h-7.32Zm14.63,0v7.32h7.31v-7.32h-7.31Zm29.26,0v7.32h7.31v-7.32h-7.31Zm14.63,0v7.32h7.31v-7.32h-7.31Zm14.62,0v7.32h7.32v-7.32h-7.32Zm7.32,0v7.32h7.31v-7.32h-7.31Zm7.31,0v7.32h7.32v-7.32h-7.32Zm7.32,0v7.32h7.31v-7.32h-7.31Zm7.31,0v7.32h7.32v-7.32h-7.32Zm7.32,0v7.32h7.31v-7.32h-7.31Zm21.94,0v7.32h7.31v-7.32h-7.31Zm14.63,0v7.32h7.31v-7.32h-7.31Zm7.31,0v7.32h7.32v-7.32h-7.32Zm7.32,0v7.32h7.31v-7.32h-7.31Zm7.31,0v7.32h7.31v-7.32h-7.31Zm7.31,0v7.32h7.32v-7.32h-7.32Zm21.95,0v7.32h7.31v-7.32h-7.31Zm7.31,0v7.32h7.32v-7.32h-7.32Zm-234.06,7.32v7.31h7.32v-7.31h-7.32Zm14.63,0v7.31h7.32v-7.31h-7.32Zm7.32,0v7.31h7.31v-7.31h-7.31Zm7.31,0v7.31h7.32v-7.31h-7.32Zm14.63,0v7.31h7.31v-7.31h-7.31Zm14.63,0v7.31h7.31v-7.31h-7.31Zm7.31,0v7.31h7.32v-7.31h-7.32Zm7.32,0v7.31h7.31v-7.31h-7.31Zm7.31,0v7.31h7.32v-7.31h-7.32Zm7.32,0v7.31h7.31v-7.31h-7.31Zm14.62,0v7.31h7.32v-7.31h-7.32Zm7.32,0v7.31h7.31v-7.31h-7.31Zm7.31,0v7.31h7.32v-7.31h-7.32Zm7.32,0v7.31h7.31v-7.31h-7.31Zm21.94,0v7.31h7.31v-7.31h-7.31Zm7.31,0v7.31h7.32v-7.31h-7.32Zm7.32,0v7.31h7.31v-7.31h-7.31Zm7.31,0v7.31h7.32v-7.31h-7.32Zm7.32,0v7.31h7.31v-7.31h-7.31Zm7.31,0v7.31h7.32v-7.31h-7.32Zm14.63,0v7.31h7.31v-7.31h-7.31Zm21.94,0v7.31h7.32v-7.31h-7.32Zm7.32,0v7.31h7.31v-7.31h-7.31Zm-226.75,7.31v7.32h7.32v-7.32h-7.32Zm14.63,0v7.32h7.32v-7.32h-7.32Zm7.32,0v7.32h7.31v-7.32h-7.31Zm7.31,0v7.32h7.32v-7.32h-7.32Zm14.63,0v7.32h7.31v-7.32h-7.31Zm21.94,0v7.32h7.32v-7.32h-7.32Zm29.26,0v7.32h7.31v-7.32h-7.31Zm7.31,0v7.32h7.32v-7.32h-7.32Zm7.32,0v7.32h7.31v-7.32h-7.31Zm7.31,0v7.32h7.32v-7.32h-7.32Zm14.63,0v7.32h7.32v-7.32h-7.32Zm14.63,0v7.32h7.31v-7.32h-7.31Zm14.63,0v7.32h7.31v-7.32h-7.31Zm36.57,0v7.32h7.31v-7.32h-7.31Zm7.31,0v7.32h7.32v-7.32h-7.32Zm29.26,0v7.32h7.32v-7.32h-7.32Zm-234.06,7.32v7.31h7.32v-7.31h-7.32Zm43.89,0v7.31h7.31v-7.31h-7.31Zm14.63,0v7.31h7.31v-7.31h-7.31Zm14.63,0v7.31h7.31v-7.31h-7.31Zm21.94,0v7.31h7.31v-7.31h-7.31Zm29.26,0v7.31h7.31v-7.31h-7.31Zm7.31,0v7.31h7.32v-7.31h-7.32Zm29.26,0v7.31h7.31v-7.31h-7.31Zm21.94,0v7.31h7.32v-7.31h-7.32Zm14.63,0v7.31h7.31v-7.31h-7.31Zm7.31,0v7.31h7.32v-7.31h-7.32Zm-204.8,7.31v7.32h7.32v-7.32h-7.32Zm7.32,0v7.32h7.31v-7.32h-7.31Zm7.31,0v7.32h7.32v-7.32h-7.32Zm7.32,0v7.32h7.31v-7.32h-7.31Zm7.31,0v7.32h7.32v-7.32h-7.32Zm7.32,0v7.32h7.31v-7.32h-7.31Zm7.31,0v7.32h7.31v-7.32h-7.31Zm14.63,0v7.32h7.31v-7.32h-7.31Zm7.31,0v7.32h7.32v-7.32h-7.32Zm7.32,0v7.32h7.31v-7.32h-7.31Zm14.63,0v7.32h7.31v-7.32h-7.31Zm36.57,0v7.32h7.31v-7.32h-7.31Zm14.63,0v7.32h7.31v-7.32h-7.31Zm14.62,0v7.32h7.32v-7.32h-7.32Zm7.32,0v7.32h7.31v-7.32h-7.31Zm43.88,0v7.32h7.32v-7.32h-7.32Zm7.32,0v7.32h7.31v-7.32h-7.31Zm14.63,0v7.32h7.31v-7.32h-7.31Z"/><circle class="cls-3" cx="128" cy="128.5" r="46.67"/><path class="cls-1" d="m122.09,106.06v-14.51c-16.17,2.57-28.87,15.46-31.14,31.73h14.41c1.93-8.39,8.42-15.03,16.73-17.21Z"/><path class="cls-1" d="m150.66,123.28h14.4c-2.29-16.37-15.14-29.32-31.46-31.78v14.48c8.47,2.09,15.1,8.79,17.06,17.29Z"/><path class="cls-1" d="m105.62,134.79h-14.52c2.67,15.77,15.17,28.15,30.98,30.66v-14.46c-7.96-2.09-14.24-8.28-16.46-16.2Z"/><path class="cls-1" d="m133.6,151.07v14.43c15.96-2.4,28.61-14.84,31.29-30.71h-14.51c-2.25,8.03-8.67,14.28-16.79,16.28Z"/></svg>